# xmcd CD database file
#
# Track frame offsets:
#	150
#	15045
#	30395
#	51882
#	65707
#	75897
#	89007
#	106870
#	124510
#	150570
#	178380
#	190630
#	199522
#	222292
#	258610
#	280475
#	301117
#	324237
#
# Disc length: 4483 seconds
#
# Revision: 1
# Processed by: cddbd v1.4PL0 Copyright (c) Steve Scherf et al.
# Submitted via: CDex 1.50Beta7
#
DISCID=e6118112
DTITLE=Marcel Worms - Blues For Piano
DYEAR=1999
DGENRE=Blues
TTITLE0=Gejaagd Door de Kwint (Dronesome Blues) - 1998
TTITLE1=Ragtime for ''Westen'' (piano solo version) - 1997
TTITLE2=The Golden Shoe (1998)
TTITLE3=Blauwburg (1996)
TTITLE4=Blues from ''The Road'' (1996)
TTITLE5=Distance of Jazz - Near (1998)
TTITLE6=Distance of Jazz - Far (1998)
TTITLE7=Base (1994)
TTITLE8=Otis Plays Arnold (1996)
TTITLE9=The Bar Pianist (1997)
TTITLE10=Honky Blues (1996)
TTITLE11=Wat Volgt (1997)
TTITLE12=A Touch of the Blues (1998)
TTITLE13=Marinella's Blues (1998)
TTITLE14=Monsieur Bee Line-eccentric (1997) 
TTITLE15=Bass Blues (1987)
TTITLE16=Moldavian Blues (1994)
TTITLE17=Worms is Back! (1998)
EXTD=YEAR: 1999
EXTT0=
EXTT1=
EXTT2=
EXTT3=
EXTT4=
EXTT5=
EXTT6=
EXTT7=
EXTT8=
EXTT9=
EXTT10=
EXTT11=
EXTT12=
EXTT13=
EXTT14=
EXTT15=
EXTT16=
EXTT17=
PLAYORDER=
